<svg id="Layer_1" data-name="Layer 1" xmlns="http://www.w3.org/2000/svg" viewBox="0 0 249.52 159.04"><defs><style>.cls-1{fill:#019cff;}.cls-2{fill:#1861d1;}</style></defs><rect class="cls-1" x="108.45" y="28.6" width="10.37" height="103.66" /><rect class="cls-1" x="150.24" y="28.54" width="10.37" height="103.66" /><rect class="cls-1" x="129.28" y="7.99" width="10.37" height="145.15" /><rect class="cls-1" x="87.77" y="49.09" width="10.37" height="72.89" /><rect class="cls-2" x="66.81" y="70.05" width="10.37" height="31.17" /><rect class="cls-2" x="46.27" y="59.85" width="10.37" height="51.63" /><rect class="cls-2" x="25.72" y="70.13" width="10.37" height="31.17" /><rect class="cls-2" x="5.94" y="80.4" width="10.34" height="10.6" /><rect class="cls-2" x="170.59" y="59.82" width="10.37" height="51.82" transform="translate(351.54 171.46) rotate(180)" /><rect class="cls-2" x="191.14" y="49.39" width="10.37" height="72.33" transform="translate(392.64 171.11) rotate(180)" /><rect class="cls-2" x="211.68" y="70.08" width="10.37" height="31.17" transform="translate(433.74 171.33) rotate(180)" /><rect class="cls-2" x="232.64" y="80.35" width="10.37" height="10.62" transform="translate(475.66 171.33) rotate(180)" /></svg>